<svg width="54" height="54" viewBox="0 0 54 54" fill="none" xmlns="http://www.w3.org/2000/svg">
<path fill-rule="evenodd" clip-rule="evenodd" d="M16.1855 6.85887C16.1855 6.81511 16.2052 6.63875 16.5369 6.34458C16.8674 6.05158 17.4098 5.73632 18.1766 5.44877C19.7019 4.87678 21.8846 4.5 24.3509 4.5C26.8171 4.5 28.9998 4.87678 30.5251 5.44877C31.2919 5.73632 31.8343 6.05158 32.1648 6.34458C32.4784 6.62263 32.5131 6.79543 32.516 6.85049L32.5159 6.85888V6.86783C32.5128 6.9235 32.4773 7.09607 32.1648 7.37316C31.8343 7.66616 31.2919 7.98142 30.5251 8.26897C28.9998 8.84096 26.8171 9.21774 24.3509 9.21774C21.8846 9.21774 19.7019 8.84096 18.1766 8.26897C17.4098 7.98142 16.8674 7.66616 16.5369 7.37316C16.2052 7.079 16.1855 6.90263 16.1855 6.85887ZM34.7662 6.85887L34.7659 6.89479V12.6411L34.7662 12.6653L34.7659 12.7013V18.4645L34.7659 18.4717L34.7659 18.4825V23.7673C34.7659 24.3886 34.2622 24.8923 33.6409 24.8923C33.0196 24.8923 32.5159 24.3886 32.5159 23.7673V21.4513C32.144 21.6517 31.7401 21.8309 31.3154 21.99C29.4784 22.6785 27.0159 23.0806 24.3506 23.0806C23.9946 23.0806 23.6418 23.0684 23.311 23.057H23.3109H23.3109H23.3108H23.3107H23.3107H23.3106H23.3106H23.3105H23.3105H23.3105H23.3105H23.3104H23.3104H23.3104L23.3015 23.0567C22.6806 23.0353 22.1946 22.5146 22.216 21.8936C22.2374 21.2727 22.7581 20.7866 23.3791 20.8081C23.7191 20.8198 24.0365 20.8306 24.3506 20.8306C26.8182 20.8306 29.0009 20.4546 30.5258 19.8831C31.2924 19.5958 31.8344 19.2808 32.1645 18.9878C32.4895 18.6995 32.5151 18.5238 32.5159 18.4744V15.645C32.1441 15.8454 31.7402 16.0245 31.3157 16.1836C29.4786 16.8721 27.0161 17.2742 24.3509 17.2742C21.6856 17.2742 19.2231 16.8721 17.386 16.1836C16.9614 16.0244 16.5575 15.8453 16.1855 15.6448V16.3466C16.1855 16.9679 15.6819 17.4716 15.0605 17.4716C14.4392 17.4716 13.9355 16.9679 13.9355 16.3466V12.6653V6.85887C13.9355 5.94058 14.4358 5.20045 15.0443 4.661C15.654 4.12039 16.4722 3.68494 17.3866 3.34203C19.2237 2.65311 21.6862 2.25 24.3509 2.25C27.0155 2.25 29.478 2.65311 31.3151 3.34203C32.2295 3.68494 33.0477 4.12039 33.6574 4.661C34.2659 5.20045 34.7662 5.94058 34.7662 6.85887ZM31.3151 10.3757C31.7399 10.2164 32.1439 10.0371 32.5159 9.83664V12.6744C32.5128 12.7314 32.4769 12.9045 32.1647 13.1814C31.8346 13.4743 31.2926 13.7894 30.526 14.0767C29.0011 14.6482 26.8185 15.0242 24.3509 15.0242C21.8832 15.0242 19.7006 14.6482 18.1757 14.0767C17.4091 13.7894 16.8671 13.4743 16.537 13.1814C16.2058 12.8876 16.1855 12.7108 16.1855 12.6653V9.8365C16.5576 10.0371 16.9617 10.2164 17.3866 10.3757C19.2237 11.0646 21.6862 11.4677 24.3509 11.4677C27.0155 11.4677 29.478 11.0646 31.3151 10.3757ZM2.25 28.9237L2.25 28.9234V26.0946C2.62207 26.2951 3.02617 26.4745 3.45106 26.6338C5.28819 27.3227 7.75068 27.7258 10.4153 27.7258C13.08 27.7258 15.5425 27.3227 17.3796 26.6338C17.8046 26.4744 18.2087 26.2951 18.5809 26.0945V28.5634C18.5809 29.1847 19.0845 29.6884 19.7059 29.6884C20.3272 29.6884 20.8309 29.1847 20.8309 28.5634V23.117C20.8309 23.1068 20.8307 23.0966 20.8305 23.0865C20.8195 22.1823 20.3236 21.4525 19.7219 20.9191C19.1121 20.3785 18.294 19.943 17.3796 19.6001C15.5425 18.9112 13.08 18.5081 10.4153 18.5081C7.75068 18.5081 5.28819 18.9112 3.45106 19.6001C2.53664 19.943 1.7185 20.3785 1.10875 20.9191C0.500303 21.4585 0 22.1987 0 23.117V28.9234V34.7299C0 35.478 0.33708 36.1136 0.788505 36.6092C1.23421 37.0985 1.83229 37.501 2.49551 37.8306C3.82406 38.4907 5.61425 38.9566 7.60702 39.1807C8.22444 39.2502 8.78126 38.8059 8.8507 38.1885C8.92013 37.5711 8.4759 37.0143 7.85847 36.9448C6.03059 36.7393 4.51691 36.3225 3.49675 35.8156C2.98562 35.5616 2.64812 35.3095 2.45186 35.094C2.26131 34.8848 2.25 34.7656 2.25 34.7299V31.9029C2.62193 32.1034 3.02584 32.2825 3.45051 32.4417C5.28754 33.1302 7.75004 33.5323 10.4153 33.5323C11.4792 33.5323 12.5131 33.4719 13.4929 33.3494C14.1094 33.2723 14.5468 32.7101 14.4697 32.0935C14.3926 31.477 13.8304 31.0397 13.2138 31.1168C12.3356 31.2265 11.3953 31.2823 10.4153 31.2823C7.9477 31.2823 5.76504 30.9063 4.24014 30.3348C3.47355 30.0475 2.93158 29.7324 2.60144 29.4395C2.27096 29.1463 2.25008 28.9695 2.25 28.9237ZM2.25 23.1172C2.25008 23.1614 2.27029 23.3377 2.60141 23.6312C2.93189 23.9242 3.47428 24.2395 4.24109 24.527C5.76639 25.099 7.94906 25.4758 10.4153 25.4758C12.8816 25.4758 15.0643 25.099 16.5896 24.527C17.3564 24.2395 17.8988 23.9242 18.2292 23.6312C18.561 23.3371 18.5806 23.1607 18.5806 23.1169C18.5806 23.0732 18.561 22.8968 18.2292 22.6027C17.8988 22.3097 17.3564 21.9944 16.5896 21.7068C15.0643 21.1349 12.8816 20.7581 10.4153 20.7581C7.94906 20.7581 5.76639 21.1349 4.24109 21.7068C3.47428 21.9944 2.93189 22.3097 2.60141 22.6027C2.26962 22.8968 2.25 23.0732 2.25 23.117V23.1172ZM21.2186 34.2519L14.5723 37.0225L24.763 41.0339C25.017 41.1339 25.2197 41.3197 25.343 41.5502L32.2993 38.6511L21.2186 34.2519ZM18.9238 32.7708L11.1501 36.0114C11.1333 36.0183 11.1166 36.0256 11.1001 36.0333C10.8696 36.1409 10.6917 36.318 10.581 36.5288C10.5446 36.598 10.5155 36.671 10.4941 36.7466C10.4638 36.8536 10.4492 36.9654 10.4518 37.0784V44.7517C10.4518 45.2127 10.733 45.627 11.1614 45.7972L23.9212 50.8664C24.1597 50.9649 24.4319 50.9818 24.6924 50.8985C24.7276 50.8873 24.7625 50.8743 24.7967 50.8595L33.7854 47.1142C33.8735 47.3004 34.0124 47.4617 34.1905 47.5772C34.5105 47.7845 34.9138 47.8157 35.2619 47.6599L44.5522 43.5025C44.9571 43.3214 45.2177 42.9192 45.2177 42.4757V42.3545L52.6551 39.252C53.0741 39.0772 53.347 38.6677 53.347 38.2137V30.4668C53.3489 30.367 53.3375 30.2684 53.3137 30.1732C53.2865 30.0638 53.2431 29.9594 53.1852 29.8635C53.0676 29.6683 52.8901 29.5072 52.6662 29.4111C52.6604 29.4086 52.6546 29.4062 52.6488 29.4038C52.6409 29.4006 52.633 29.3974 52.6251 29.3944L39.8087 24.4141C39.5377 24.3088 39.2365 24.3125 38.9682 24.4244L30.5106 27.9511L29.7172 27.6426C29.4458 27.5371 29.1442 27.5409 28.8756 27.6532L19.5969 31.5319C19.1749 31.7083 18.9017 32.1226 18.9058 32.58C18.9064 32.6447 18.9125 32.7085 18.9238 32.7708ZM30.0038 30.1682C30.0728 30.2035 30.1453 30.2317 30.22 30.2523L42.9677 35.2091V41.5945C42.9676 41.6016 42.9676 41.6087 42.9677 41.6157V41.7466L35.9274 44.8971V38.4344C35.9274 37.9733 35.646 37.5589 35.2175 37.3888L23.0119 32.543L29.3247 29.9041L30.0038 30.1682ZM45.2177 39.9165L51.097 37.464V32.1335L45.2177 34.5884V39.9165ZM43.333 32.9371L33.5358 29.1275L39.416 26.6754L49.2124 30.4822L43.333 32.9371ZM33.6774 44.7217V40.5143L25.476 43.9324V48.139L33.6774 44.7217ZM23.226 43.2173C23.2253 43.1944 23.2253 43.1715 23.226 43.1487V42.8469L12.7018 38.7042V43.9881L23.226 48.1691V43.2173Z" fill="black"/>
<path d="M49.4729 6.93032C49.5775 6.82197 49.7027 6.73554 49.8411 6.67609C49.9795 6.61663 50.1284 6.58534 50.279 6.58403C50.4297 6.58272 50.579 6.61142 50.7185 6.66846C50.8579 6.7255 50.9846 6.80974 51.0911 6.91626C51.1976 7.02277 51.2818 7.14944 51.3389 7.28886C51.3959 7.42828 51.4246 7.57766 51.4233 7.7283C51.422 7.87893 51.3907 8.02779 51.3312 8.1662C51.2718 8.30461 51.1854 8.42979 51.077 8.53444L39.8459 19.7655C39.632 19.9722 39.3454 20.0865 39.0479 20.0839C38.7505 20.0814 38.466 19.962 38.2556 19.7517C38.0453 19.5414 37.926 19.2568 37.9234 18.9594C37.9208 18.6619 38.0351 18.3754 38.2418 18.1614L49.4729 6.93032ZM42.2532 10.9417C41.8276 11.3673 41.2504 11.6064 40.6485 11.6064C40.0467 11.6064 39.4694 11.3673 39.0439 10.9417C38.6183 10.5162 38.3792 9.93894 38.3792 9.33706C38.3792 8.73519 38.6183 8.15797 39.0439 7.73238C39.4696 7.30664 40.047 7.06746 40.6491 7.06746C41.2512 7.06746 41.8286 7.30664 42.2544 7.73238C42.6801 8.15812 42.9193 8.73554 42.9193 9.33763C42.9193 9.93972 42.6801 10.5171 42.2544 10.9429L42.2532 10.9417ZM47.0656 18.9635C47.4912 19.3891 48.0684 19.6282 48.6703 19.6282C49.2721 19.6282 49.8494 19.3891 50.2749 18.9635C50.7005 18.5379 50.9396 17.9607 50.9396 17.3588C50.9396 16.7569 50.7005 16.1797 50.2749 15.7541C49.8494 15.3285 49.2721 15.0894 48.6703 15.0894C48.0684 15.0894 47.4912 15.3285 47.0656 15.7541C46.64 16.1797 46.4009 16.7569 46.4009 17.3588C46.4009 17.9607 46.64 18.5379 47.0656 18.9635Z" fill="#DC0005"/>
</svg>
