<svg width="54" height="54" viewBox="0 0 54 54" fill="none" xmlns="http://www.w3.org/2000/svg">
<path fill-rule="evenodd" clip-rule="evenodd" d="M17.8048 5.67335C18.5549 5.47216 19.3262 5.91717 19.5273 6.66731L21.2756 13.1856C21.4768 13.9357 21.0318 14.7069 20.2816 14.9081C19.5315 15.1093 18.7603 14.6643 18.5591 13.9141L16.8109 7.39589C16.6097 6.64575 17.0547 5.87455 17.8048 5.67335ZM34.378 10.112C34.9271 10.6612 34.9271 11.5515 34.378 12.1007L29.6035 16.8752C29.0543 17.4244 28.1639 17.4244 27.6147 16.8752C27.0656 16.326 27.0656 15.4357 27.6147 14.8865L32.3892 10.112C32.9384 9.56281 33.8288 9.56281 34.378 10.112ZM5.67332 17.8027C5.87445 17.0525 6.64562 16.6074 7.39577 16.8086L13.9163 18.5568C14.6664 18.758 15.1115 19.5291 14.9104 20.2793C14.7092 21.0294 13.9381 21.4745 13.1879 21.2734L6.66742 19.5251C5.91727 19.324 5.47219 18.5528 5.67332 17.8027ZM16.8747 27.612C17.4242 28.1609 17.4246 29.0513 16.8757 29.6007L12.1057 34.3752C11.5568 34.9247 10.6664 34.9251 10.1169 34.3762C9.56752 33.8273 9.5671 32.9369 10.116 32.3874L14.886 27.6129C15.4349 27.0635 16.3253 27.0631 16.8747 27.612Z" fill="#DC0005"/>
<path fill-rule="evenodd" clip-rule="evenodd" d="M20.6622 20.6619C21.0485 20.2756 21.6236 20.148 22.1371 20.3347L46.8871 29.3347C47.4352 29.534 47.8034 30.0509 47.8126 30.634C47.8219 31.2171 47.4703 31.7454 46.9288 31.962L37.6589 35.6699L47.4009 45.4119C47.9501 45.9611 47.9501 46.8515 47.4009 47.4007C46.8517 47.9498 45.9613 47.9498 45.4122 47.4007L35.6702 37.6587L31.9622 46.9286C31.7456 47.47 31.2173 47.8216 30.6342 47.8124C30.0511 47.8031 29.5342 47.4349 29.3349 46.8869L20.3349 22.1369C20.1482 21.6234 20.2758 21.0483 20.6622 20.6619ZM24.0079 24.0077L30.7191 42.4634L33.8509 34.634C33.9938 34.2767 34.2769 33.9936 34.6343 33.8506L42.4637 30.7189L24.0079 24.0077Z" fill="black"/>
</svg>
