<svg width="54" height="54" viewBox="0 0 54 54" fill="none" xmlns="http://www.w3.org/2000/svg">
<g clip-path="url(#clip0_244_3684)">
<path fill-rule="evenodd" clip-rule="evenodd" d="M2.20181 28.9223C2.20181 28.6833 2.39549 28.4896 2.63441 28.4896H34.9231C35.162 28.4896 35.3557 28.6833 35.3557 28.9223V48.9635C35.3557 49.2024 35.162 49.3961 34.9231 49.3961H2.63441C2.39549 49.3961 2.20181 49.2024 2.20181 48.9635V28.9223ZM2.63441 26.0146C1.02858 26.0146 -0.273193 27.3164 -0.273193 28.9223V48.9635C-0.273193 50.5693 1.02858 51.8711 2.63441 51.8711H34.9231C36.5289 51.8711 37.8307 50.5693 37.8307 48.9635V28.9223C37.8307 27.3164 36.5289 26.0146 34.9231 26.0146H2.63441ZM7.64462 43.8291C6.96117 43.8291 6.40712 44.3831 6.40712 45.0666C6.40712 45.75 6.96117 46.3041 7.64462 46.3041H9.87143C10.5549 46.3041 11.1089 45.75 11.1089 45.0666C11.1089 44.3831 10.5549 43.8291 9.87143 43.8291H7.64462ZM13.0877 45.0666C13.0877 44.3831 13.6417 43.8291 14.3252 43.8291H16.552C17.2354 43.8291 17.7895 44.3831 17.7895 45.0666C17.7895 45.75 17.2354 46.3041 16.552 46.3041H14.3252C13.6417 46.3041 13.0877 45.75 13.0877 45.0666ZM21.0055 43.8291C20.322 43.8291 19.768 44.3831 19.768 45.0666C19.768 45.75 20.322 46.3041 21.0055 46.3041H23.2323C23.9157 46.3041 24.4698 45.75 24.4698 45.0666C24.4698 44.3831 23.9157 43.8291 23.2323 43.8291H21.0055ZM26.4483 45.0666C26.4483 44.3831 27.0024 43.8291 27.6858 43.8291H29.9126C30.5961 43.8291 31.1501 44.3831 31.1501 45.0666C31.1501 45.75 30.5961 46.3041 29.9126 46.3041H27.6858C27.0024 46.3041 26.4483 45.75 26.4483 45.0666ZM7.76882 36.0353V34.0567H13.0876V36.0353H7.76882ZM7.64472 31.5817C6.34635 31.5817 5.29381 32.6342 5.29381 33.9326V36.1594C5.29381 37.4578 6.34635 38.5103 7.64472 38.5103H13.2117C14.5101 38.5103 15.5626 37.4578 15.5626 36.1594V33.9326C15.5626 32.6342 14.5101 31.5817 13.2117 31.5817H7.64472Z" fill="#DC0005"/>
<path fill-rule="evenodd" clip-rule="evenodd" d="M32.5677 4.26392L32.5652 4.26534L18.1188 12.6539H38.5791L33.9158 4.61955C33.6498 4.15523 33.0538 3.98711 32.5677 4.26392ZM13.547 15.1289C13.5319 15.1291 13.5168 15.1291 13.5017 15.1289H10.9847C10.2206 15.1289 9.50735 14.9519 8.88198 14.6363V22.7986C8.88198 23.482 8.32793 24.0361 7.64448 24.0361C6.96103 24.0361 6.40698 23.482 6.40698 22.7986V10.5512C6.40698 7.98877 8.40574 5.97345 10.9847 5.97345H18.7785C19.462 5.97345 20.016 6.5275 20.016 7.21095C20.016 7.8944 19.462 8.44845 18.7785 8.44845H10.9847C9.77807 8.44845 8.88198 9.35025 8.88198 10.5512C8.88198 11.7521 9.77807 12.6539 10.9847 12.6539H13.19L31.3348 2.1178C32.9848 1.17248 35.1023 1.71584 36.0614 3.38586L36.0633 3.38919L41.4408 12.6539H44.2626V8.44845H41.0465C40.3631 8.44845 39.809 7.8944 39.809 7.21095C39.809 6.5275 40.3631 5.97345 41.0465 5.97345H45.5001C46.1836 5.97345 46.7376 6.5275 46.7376 7.21095V12.6539H51.0672C51.7506 12.6539 52.3047 13.2079 52.3047 13.8914V22.6806C52.9298 22.7429 53.418 23.2704 53.418 23.912V31.7058C53.418 32.3474 52.9298 32.8749 52.3046 32.9372V41.7264C52.3046 42.4099 51.7506 42.9639 51.0671 42.9639H41.0465C40.3631 42.9639 39.809 42.4099 39.809 41.7264C39.809 41.043 40.3631 40.4889 41.0465 40.4889H49.8296V32.9433H44.3867C41.6815 32.9433 39.809 30.4537 39.809 27.8089C39.809 25.164 41.6815 22.6745 44.3867 22.6745H49.8297V15.1289H40.9028C40.7911 15.1441 40.6787 15.1439 40.5687 15.1289H13.547ZM42.284 27.8089C42.284 26.156 43.3954 25.1495 44.3867 25.1495H50.943V30.4683H44.3867C43.3954 30.4683 42.284 29.4618 42.284 27.8089Z" fill="black"/>
</g>
<defs>
<clipPath id="clip0_244_3684">
<rect width="54" height="54" fill="white"/>
</clipPath>
</defs>
</svg>
